<mxfile host="app.diagrams.net" modified="2023-10-04T13:02:47.394Z" agent="Mozilla/5.0 (Windows NT 10.0; Win64; x64) AppleWebKit/537.36 (KHTML, like Gecko) Chrome/117.0.0.0 Safari/537.36 Edg/117.0.2045.47" version="22.0.2" etag="2173YhBWnIIVxJRQwckz" type="github">
  <diagram name="페이지-1" id="yc-rSG2i95ZkA9QC6Q8_">
    <mxGraphModel>
      <root>
        <mxCell id="0" />
        <mxCell id="1" parent="0" />
      </root>
    </mxGraphModel>
  </diagram>
</mxfile>
